<?xml version="1.0" encoding="iso-8859-1"?>
<!-- Generator: Adobe Illustrator 17.1.0, SVG Export Plug-In . SVG Version: 6.00 Build 0)  -->
<!DOCTYPE svg PUBLIC "-//W3C//DTD SVG 1.1//EN" "http://www.w3.org/Graphics/SVG/1.1/DTD/svg11.dtd">
<svg version="1.1" id="Capa_1" xmlns="http://www.w3.org/2000/svg" xmlns:xlink="http://www.w3.org/1999/xlink" x="0px" y="0px"
	 viewBox="0 0 438 438" style="enable-background:new 0 0 438 438;" xml:space="preserve">
<g>
	<path fill="#4a90e2" d="M359,110h-36.611V10c0-5.522-4.478-10-10-10H145.611c-5.523,0-10,4.478-10,10v100H119c-16.542,0-30,13.458-30,30v24H79
		c-16.542,0-30,13.458-30,30v38.72c-11.639,4.128-20,15.243-20,28.28v80c0,13.036,8.361,24.152,20,28.28V408
		c0,16.542,13.458,30,30,30h280c27.57,0,50-22.43,50-50V160C409,132.43,386.57,110,359,110z M155.611,20h146.777v144H259V94.513
		c0-5.522-4.478-10-10-10s-10,4.478-10,10V164h-20V94.513c0-5.522-4.477-10-10-10s-10,4.478-10,10V164h-43.389V20z M109,140
		c0-5.514,4.486-10,10-10h16.611v34H109V140z M389,388c0,16.542-13.458,30-30,30H79c-5.514,0-10-4.486-10-10v-37h50
		c38.598,0,70-31.402,70-70s-31.402-70-70-70c-5.523,0-10,4.478-10,10s4.477,10,10,10c27.57,0,50,22.43,50,50s-22.43,50-50,50H59
		c-5.514,0-10-4.486-10-10v-80c0-5.514,4.486-10,10-10h25.889c5.523,0,10-4.478,10-10s-4.477-10-10-10H69v-37
		c0-5.514,4.486-10,10-10h265c13.785,0,25-11.215,25-25c0-5.522-4.478-10-10-10s-10,4.478-10,10c0,2.757-2.243,5-5,5h-21.611v-34
		H359c16.542,0,30,13.458,30,30V388z"/>
	<path fill="#4a90e2" d="M84,301c0,19.299,15.701,35,35,35s35-15.701,35-35s-15.701-35-35-35S84,281.701,84,301z M119,286c8.271,0,15,6.729,15,15
		s-6.729,15-15,15s-15-6.729-15-15S110.729,286,119,286z"/>
</g>
<g>
</g>
<g>
</g>
<g>
</g>
<g>
</g>
<g>
</g>
<g>
</g>
<g>
</g>
<g>
</g>
<g>
</g>
<g>
</g>
<g>
</g>
<g>
</g>
<g>
</g>
<g>
</g>
<g>
</g>
</svg>
