<?xml version="1.0" encoding="iso-8859-1"?>
<!-- Generator: Adobe Illustrator 19.0.0, SVG Export Plug-In . SVG Version: 6.00 Build 0)  -->
<svg version="1.1" id="Layer_1" xmlns="http://www.w3.org/2000/svg" xmlns:xlink="http://www.w3.org/1999/xlink" x="0px" y="0px"
	 viewBox="0 0 488 488" style="enable-background:new 0 0 488 488;" xml:space="preserve">
<g transform="translate(0 -540.36)">
	<g>
		<g>
			<path d="M358.3,897.56c-18,4.9-33.6,7.3-47.7,7.3c-93.6,0-169.8-74.8-169.9-166.7c0.8-22.5,5-43.4,12.3-62.1
				c1.4-3.6,0.7-7.6-1.9-10.4c-2.6-2.8-6.5-4-10.2-2.9c-39.5,11.4-73.4,34.7-98.2,67.3s-37.9,71.1-37.9,111.5
				c0,103,84.9,186.8,189.2,186.8v0c77.8,0,147-46.1,176.2-117.4c1.4-3.5,0.7-7.5-1.8-10.4C365.9,897.76,362,896.56,358.3,897.56z
				 M194,1008.36c-93.3,0-169.2-74.8-169.2-166.8c0-66.7,41.5-127.1,103-153h0c-4.1,15.4-6.5,31.8-7,49c0,0.1,0,0.2,0,0.3
				c0,103,85.2,186.8,189.9,186.8c10.1,0,20.8-1.1,32.3-3.2C313.3,974.86,256.8,1008.36,194,1008.36z"/>
			<path d="M235.2,583.56l18.3,5.8l-11.3,16.3c-1.2,1.7-1.8,3.7-1.8,5.7c0,3.1,1.5,6.3,4.3,8.2c1.7,1.2,3.7,1.8,5.7,1.8v0
				c3.1,0,6.3-1.5,8.4-4.4l10.8-15.6l10.8,15.6c3.1,4.5,9.4,5.6,13.9,2.5c2.8-1.9,4.3-5,4.3-8.2c0-2-0.6-4-1.8-5.7l-11.4-16.4
				l17.7-5.7c4.2-1.4,6.9-5.3,6.9-9.5c0-1-0.2-2.1-0.5-3.1c-1.7-5.2-7.3-8.1-12.6-6.4l-17.4,5.7v-19.8c0-5.5-4.5-10-10-10
				s-10,4.5-10,10v20l-18.2-5.8c-5.3-1.7-10.9,1.2-12.6,6.5c-0.3,1-0.5,2-0.5,3C228.2,578.26,230.9,582.16,235.2,583.56z"/>
			<path d="M269,803.86c5.5,0,10-4.5,10-10v-20.1h20.1c5.5,0,10-4.5,10-10c0.1-5.5-4.4-10-9.9-10h-20.1v-20.1c0-5.5-4.5-10-10-10
				s-10,4.5-10,10v20.1h-20.2c-5.5,0-10,4.5-10,10s4.5,10,10,10H259v20.1C259,799.36,263.5,803.86,269,803.86z"/>
			<path d="M482.7,845.46c-1.7-5.3-7.3-8.2-12.6-6.5l-18.2,5.8v-19.9c0-5.5-4.5-10-10-10s-10,4.5-10,10v19.8l-17.4-5.7
				c-5.2-1.7-10.9,1.1-12.6,6.4c-0.3,1-0.5,2.1-0.5,3.1c0,4.2,2.7,8.1,6.9,9.5l17.9,5.8l-11,16.5c-1.2,1.7-1.7,3.6-1.7,5.5
				c0,3.2,1.6,6.4,4.5,8.3c1.7,1.2,3.6,1.7,5.5,1.7l0,0c3.2,0,6.4-1.6,8.4-4.5l10.3-15.5l11.4,15.8c3.3,4.4,9.5,5.4,14,2.2
				c2.7-1.9,4.1-5,4.1-8.1c0-2-0.6-4-1.9-5.8l-11.7-16.2l18.1-5.7c4.3-1.3,7-5.3,7-9.5C483.2,847.46,483,846.46,482.7,845.46z"/>
			<path d="M412.1,682.36h20.1v20.1c0,5.5,4.5,10,10,10s10-4.5,10-10v-20.1h20.1c5.5,0,10-4.5,10-10s-4.5-10-10-10h-20.1v-20.1
				c0-5.5-4.5-10-10-10s-10,4.5-10,10v20.1h-20.1c-5.5,0-10,4.5-10,10S406.6,682.36,412.1,682.36z"/>
		</g>
	</g>
</g>
<g>
</g>
<g>
</g>
<g>
</g>
<g>
</g>
<g>
</g>
<g>
</g>
<g>
</g>
<g>
</g>
<g>
</g>
<g>
</g>
<g>
</g>
<g>
</g>
<g>
</g>
<g>
</g>
<g>
</g>
</svg>
